<svg xmlns="http://www.w3.org/2000/svg" width="1920" height="1354" fill="none"  xmlns:v="https://vecta.io/nano"><style><![CDATA[.B{color-interpolation-filters:sRGB}.C{flood-opacity:0}.D{fill:#41ead4}.E{fill-rule:evenodd}.F{fill:#7741ea}]]></style><g opacity=".5" filter="url(#A)" class="D"><path d="M371.967 330.434c-48.515-25.571-15.158-64.114 7.584-80.189-277.918 44.835-125.782 78.212-134.452 128.854s155.71 42.125 182.587 21.12 4.924-37.822-55.719-69.785z"/></g><g opacity=".15" filter="url(#B)" class="D"><path d="M373.843 1047.63c-91.54-48.261-28.589-121.015 14.329-151.36-524.434 84.652-237.366 147.64-253.736 243.23s293.81 79.5 344.531 39.85 9.301-71.39-105.124-131.72z"/></g><g opacity=".1" filter="url(#C)"><path d="M499.575 1148.21c-2.381-60.25-109.698-73.5-163.06-72.59 357.773-158.794 274.366-15.45 381.124 27.57s-69.907 154.47-136.865 153.59-78.222-33.25-81.199-108.57z" fill="#41adea"/></g><g opacity=".5" filter="url(#D)" class="D"><path d="M1394.03 527.088c48.51-25.571 15.16-64.113-7.59-80.188 277.92 44.835 125.79 78.212 134.46 128.854s-155.71 42.124-182.59 21.12-4.92-37.822 55.72-69.786z"/></g><g opacity=".5" filter="url(#E)" class="F"><path d="M1326.9 475.619c24.6-12.967 7.68-32.513-3.85-40.664 140.93 22.736 63.79 39.662 68.18 65.343 4.4 25.681-78.96 21.361-92.59 10.71s-2.5-19.18 28.26-35.389z"/></g><g opacity=".5" filter="url(#F)" class="F"><path d="M398.753 403.187c24.602-12.967 7.687-32.513-3.846-40.664 140.934 22.736 63.785 39.662 68.182 65.343s-78.962 21.361-92.591 10.71-2.497-19.18 28.255-35.389z"/></g><g opacity=".1" filter="url(#G)" class="E F"><path d="M1267.4 337.085c105.1-8.158 210.08 24.01 276.46 74.588 66.69 50.813 91.82 119.857 60.54 182.18-28.98 57.766-118.59 91.618-209.62 114.909-83.73 21.42-175.13 26.681-258.59 4.887-88.8-23.185-174.66-63.627-189.96-122.01-14.599-55.705 64.2-98.292 120.52-142.931 58.13-46.071 106.35-104.303 200.65-111.623z"/></g><g opacity=".1" filter="url(#H)" class="E F"><path d="M1527.16 774.304c105.1-8.158 210.07 24.01 276.46 74.588 66.69 50.813 91.82 119.857 60.54 182.178-28.99 57.77-118.6 91.62-209.63 114.91-83.72 21.42-175.12 26.68-258.59 4.89-88.79-23.19-174.65-63.63-189.95-122.01-14.6-55.707 64.2-98.294 120.52-142.933 58.13-46.071 106.35-104.303 200.65-111.623z"/></g><g opacity=".07" filter="url(#I)" class="D E"><path d="M603.605 279.657c135.7-10.534 271.242 31.001 356.954 96.306 86.111 65.61 118.551 154.759 78.171 235.229-37.43 74.587-153.128 118.296-270.664 148.369-108.099 27.658-226.116 34.451-333.883 6.311-114.647-29.936-225.512-82.155-245.268-157.538-18.849-71.926 82.898-126.914 155.618-184.551 75.054-59.487 137.317-134.674 259.072-144.126z"/></g><g opacity=".1" filter="url(#J)" class="D E"><path d="M1504.02 849.731c-135.7-10.534-271.24 31-356.95 96.306-86.11 65.613-118.56 154.763-78.17 235.233 37.42 74.58 153.13 118.29 270.66 148.36 108.1 27.66 226.12 34.46 333.89 6.32 114.64-29.94 225.51-82.16 245.26-157.54 18.85-71.93-82.89-126.92-155.61-184.554-75.06-59.486-137.32-134.674-259.08-144.125z"/></g><g opacity=".11" filter="url(#K)" class="E"><path d="M501.05 279.256c102.326-7.939 204.532 23.366 269.162 72.587 64.932 49.45 89.397 116.643 58.948 177.294-28.223 56.217-115.469 89.161-204.098 111.827-81.511 20.846-170.503 25.966-251.764 4.757-86.45-22.564-170.049-61.922-184.945-118.738-14.213-54.211 62.509-95.656 117.344-139.098 56.594-44.836 103.544-101.505 195.353-108.629z" fill="#be41ea"/></g><defs><filter id="A" x="-38.749" y=".245" width="727.751" height="666.494" filterUnits="userSpaceOnUse" class="B"><feFlood class="C"/><feBlend in="SourceGraphic"/><feGaussianBlur stdDeviation="125"/></filter><filter id="B" x="-179.42" y="646.27" width="929.745" height="814.269" filterUnits="userSpaceOnUse" class="B"><feFlood class="C"/><feBlend in="SourceGraphic"/><feGaussianBlur stdDeviation="125"/></filter><filter id="C" x="86.515" y="752.614" width="914.622" height="754.174" filterUnits="userSpaceOnUse" class="B"><feFlood class="C"/><feBlend in="SourceGraphic"/><feGaussianBlur stdDeviation="125"/></filter><filter id="D" x="1076.99" y="196.9" width="727.751" height="666.494" filterUnits="userSpaceOnUse" class="B"><feFlood class="C"/><feBlend in="SourceGraphic"/><feGaussianBlur stdDeviation="125"/></filter><filter id="E" x="1042.9" y="184.955" width="615.494" height="584.43" filterUnits="userSpaceOnUse" class="B"><feFlood class="C"/><feBlend in="SourceGraphic"/><feGaussianBlur stdDeviation="125"/></filter><filter id="F" x="114.759" y="112.523" width="615.494" height="584.43" filterUnits="userSpaceOnUse" class="B"><feFlood class="C"/><feBlend in="SourceGraphic"/><feGaussianBlur stdDeviation="125"/></filter><filter id="G" x="694.459" y="85.824" width="1173.29" height="891.808" filterUnits="userSpaceOnUse" class="B"><feFlood class="C"/><feBlend in="SourceGraphic"/><feGaussianBlur stdDeviation="125"/></filter><filter id="H" x="954.216" y="523.043" width="1173.29" height="891.808" filterUnits="userSpaceOnUse" class="B"><feFlood class="C"/><feBlend in="SourceGraphic"/><feGaussianBlur stdDeviation="125"/></filter><filter id="I" x="-63.371" y="28.028" width="1369.33" height="1005.9" filterUnits="userSpaceOnUse" class="B"><feFlood class="C"/><feBlend in="SourceGraphic"/><feGaussianBlur stdDeviation="125"/></filter><filter id="J" x="801.67" y="598.102" width="1369.33" height="1005.9" filterUnits="userSpaceOnUse" class="B"><feFlood class="C"/><feBlend in="SourceGraphic"/><feGaussianBlur stdDeviation="125"/></filter><filter id="K" x="-63.371" y="28.028" width="1155.52" height="881.3" filterUnits="userSpaceOnUse" class="B"><feFlood class="C"/><feBlend in="SourceGraphic"/><feGaussianBlur stdDeviation="125"/></filter></defs></svg>