<svg xmlns="http://www.w3.org/2000/svg" width="57" height="27" fill="none"  xmlns:v="https://vecta.io/nano"><path d="M23.948 1.232c-.792.12-1.38.324-1.764.612-.36.288-.612.744-.756 1.368-.12.624-.18 1.548-.18 2.772v20.088l-.864-.036-.972.036-15.624-19.8v13.824c0 1.416.072 2.46.216 3.132.144.648.456 1.128.936 1.44.48.288 1.26.492 2.34.612V26l-3.888-.108L.26 26v-.72c.792-.12 1.368-.324 1.728-.612.384-.288.636-.744.756-1.368.144-.624.216-1.548.216-2.772v-16.2c0-.912-.072-1.572-.216-1.98-.12-.408-.372-.684-.756-.828-.36-.144-.936-.24-1.728-.288v-.72C1.028.584 2.072.62 3.392.62L6.488.512 20.42 17.684V6.416c0-1.416-.072-2.448-.216-3.096-.144-.672-.456-1.152-.936-1.44-.48-.312-1.26-.528-2.34-.648v-.72l3.888.108 3.132-.108v.72zm24.145-.72l-.252 6.12.108 2.736h-.828c-.576-2.952-1.368-5.028-2.376-6.228-.984-1.2-2.34-1.8-4.068-1.8h-.828v20.556c0 1.008.096 1.74.288 2.196a1.75 1.75 0 0 0 1.08.936c.528.144 1.356.228 2.484.252V26l-6.84-.108-6.588.108v-.72c1.128-.024 1.944-.108 2.448-.252.528-.168.888-.48 1.08-.936.216-.456.324-1.188.324-2.196V1.34h-.792c-1.152 0-2.136.252-2.952.756-.792.504-1.476 1.344-2.052 2.52-.576 1.152-1.068 2.736-1.476 4.752h-.828c.072-.696.108-1.608.108-2.736l-.252-6.12c2.184.072 5.892.108 11.124.108L48.093.512z" fill="#fff"/><path d="M53.887 20.96c.936 0 1.68.252 2.232.756.552.48.828 1.152.828 2.016s-.276 1.548-.828 2.052c-.552.48-1.296.72-2.232.72s-1.68-.24-2.232-.72c-.552-.504-.828-1.188-.828-2.052s.276-1.536.828-2.016c.552-.504 1.296-.756 2.232-.756z" fill="#41ead4"/></svg>